<?xml version="1.0" encoding="UTF-8"?>
<svg id="Layer_1" data-name="Layer 1" xmlns="http://www.w3.org/2000/svg" viewBox="132.730 1219.560 3328.708 816.300">
  <defs>
    <style>
      .cls-1 {
        fill: #18154c;
      }

      .cls-2 {
        fill: #ef3c23;
      }
    </style>
  </defs>
  <g>
    <path class="cls-2" d="M2471.33,1398.2c33.74,0,61.09-27.38,61.09-61.12s-27.34-61.12-61.09-61.12-61.12,27.38-61.12,61.12c0,5.86.83,11.5,2.35,16.85,3.83-2.35,8.39-3.73,13.24-3.73,14.07,0,25.46,11.39,25.46,25.43,0,6.37-2.35,12.19-6.18,16.64,7.96,3.8,16.85,5.93,26.26,5.93Z"/>
    <path class="cls-1" d="M347.92,1420.75c115.16,0,191.41,63.02,199.19,164.95h-120.6c-8.56-38.9-32.68-57.58-73.92-57.58-50.58,0-83.25,38.13-83.25,98.04s30.35,98.82,81.7,98.82c42.02,0,67.69-19.45,75.47-57.58h120.6c-7.78,98.04-87.15,164.95-196.08,164.95-122.94,0-202.3-81.7-202.3-206.19s82.48-205.41,199.19-205.41Z"/>
    <path class="cls-1" d="M612.47,1822.24v-586.67h120.6v238.09c24.12-33.46,68.47-52.91,119.05-52.91,92.59,0,146.28,59.13,146.28,161.06v240.43h-119.82v-211.64c0-49.02-27.23-80.92-68.47-80.92-47.46,0-77.81,31.12-77.81,79.36v213.19h-119.83Z"/>
    <path class="cls-1" d="M1277.73,1421.52c123.72,0,213.97,82.48,213.97,205.41s-90.26,204.64-213.97,204.64-214.75-81.7-214.75-204.64,90.26-205.41,214.75-205.41ZM1277.73,1724.2c55.24,0,93.37-38.9,93.37-98.04s-38.13-97.26-93.37-97.26-94.15,38.9-94.15,97.26,38.13,98.04,94.15,98.04Z"/>
    <path class="cls-1" d="M1754.69,1421.52c123.72,0,213.97,82.48,213.97,205.41s-90.26,204.64-213.97,204.64-214.75-81.7-214.75-204.64,90.26-205.41,214.75-205.41ZM1754.69,1724.2c55.24,0,93.37-38.9,93.37-98.04s-38.13-97.26-93.37-97.26-94.15,38.9-94.15,97.26,38.13,98.04,94.15,98.04Z"/>
    <path class="cls-1" d="M2123.51,1699.3c1.56,27.23,21.79,43.57,58.36,43.57s54.47-13.23,54.47-33.46c0-11.67-6.22-24.12-35.01-30.35l-71.58-15.56c-71.58-15.56-106.6-46.68-106.6-115.16,0-80.92,69.25-127.61,162.62-127.61s153.28,52.91,153.28,131.5h-113.6c0-26.45-16.34-44.35-45.13-44.35-27.23,0-44.35,14.01-44.35,35.01,0,17.9,14.78,28.01,42.02,34.24l72.36,15.56c63.8,14.01,98.82,43.57,98.82,105.82,0,83.25-70.81,133.83-171.96,133.83s-167.29-54.47-167.29-133.05h113.6Z"/>
    <path class="cls-1" d="M2411.4,1433.19h119.83v389.04h-119.83v-389.04Z"/>
    <path class="cls-1" d="M2638.6,1433.19v-31.12c0-115.93,60.69-166.51,159.51-166.51,16.34,0,35.01,1.56,53.69,4.67v102.71h-33.46c-49.02,0-59.91,25.68-59.91,59.13v31.12h93.37v99.59h-93.37v289.45h-119.82v-289.45h-53.69v-99.59h53.69Z"/>
    <path class="cls-1" d="M2874.35,1908.6h66.14c40.46,0,57.58-12.45,73.14-54.47l7-18.67-156.39-402.27h128.38l84.81,249.76,94.15-249.76h124.49l-197.63,473.85c-32.68,79.36-76.25,112.82-144.72,112.82-28.79,0-56.02-3.89-79.36-10.89v-100.37Z"/>
  </g>
  <g data-rmark-scaled="1" transform="translate(3335.109 1832.350) scale(1.55) translate(-3303.790 -1832.350)">
      <path class="cls-1" d="M3303.79,1903.53c-19.01,0-36.89-7.4-50.33-20.85-13.44-13.44-20.85-31.32-20.85-50.33s7.4-36.89,20.85-50.33c13.44-13.44,31.32-20.85,50.33-20.85s36.89,7.4,50.33,20.85c13.44,13.44,20.85,31.32,20.85,50.33s-7.4,36.89-20.85,50.33c-13.44,13.44-31.32,20.85-50.33,20.85ZM3303.79,1775.75c-31.21,0-56.6,25.39-56.6,56.6s25.39,56.6,56.6,56.6,56.6-25.39,56.6-56.6-25.39-56.6-56.6-56.6Z"/>
    <path class="cls-1" d="M3283.14,1859.85v-54.99h20.99c12.49,0,19.78,6.32,19.78,17.15,0,7.37-3.46,12.64-9.93,15.27l10.46,22.57h-10.53l-9.33-20.54h-11.81v20.54h-9.63ZM3292.77,1830.81h11.36c6.09,0,9.7-3.24,9.7-8.8s-3.61-8.58-9.7-8.58h-11.36v17.38Z"/>
  
  </g>
</svg>
