<?xml version="1.0" encoding="UTF-8"?>
<svg id="Layer_1" data-name="Layer 1" xmlns="http://www.w3.org/2000/svg" viewBox="96.730 1417.990 3356.078 664.040">
  <defs>
    <style>
      .cls-1 {
        fill: #fff;
      }

      .cls-2 {
        fill: #ef3c23;
      }
    </style>
  </defs>
  <g>
    <path class="cls-2" d="M1265.35,1813.02c0-59.21-48.04-107.19-107.26-107.19s-107.26,47.98-107.26,107.19,48.04,107.26,107.26,107.26c10.28,0,20.18-1.46,29.57-4.13-4.12-6.73-6.54-14.72-6.54-23.23,0-24.69,19.99-44.68,44.62-44.68,11.17,0,21.39,4.13,29.19,10.85,6.66-13.96,10.41-29.57,10.41-46.08Z"/>
    <path class="cls-2" d="M558.13,1813.02c0-59.21-48.04-107.19-107.26-107.19s-107.26,47.98-107.26,107.19c0,59.21,48.04,107.26,107.26,107.26,10.28,0,20.18-1.46,29.57-4.13-4.12-6.73-6.54-14.72-6.54-23.23,0-24.69,19.99-44.68,44.62-44.68,11.17,0,21.39,4.13,29.19,10.85,6.66-13.96,10.41-29.57,10.41-46.08Z"/>
    <path class="cls-2" d="M428.75,2066.03c-42.65,0-84.04-8.36-123.02-24.85-37.64-15.92-71.43-38.7-100.44-67.71-29.01-29.01-51.79-62.81-67.71-100.44-16.49-38.98-24.85-80.37-24.85-123.02s8.36-84.04,24.85-123.02c15.92-37.64,38.7-71.43,67.71-100.44,29.01-29.01,62.81-51.8,100.44-67.71,38.98-16.49,80.37-24.85,123.02-24.85s84.04,8.36,123.02,24.85c37.64,15.92,71.43,38.7,100.44,67.71,29.01,29.01,51.79,62.81,67.71,100.44,16.49,38.98,24.85,80.37,24.85,123.02s-8.36,84.04-24.85,123.02c-15.92,37.64-38.7,71.43-67.71,100.44-29.01,29.01-62.81,51.8-100.44,67.71-38.98,16.49-80.37,24.85-123.02,24.85ZM428.75,1500.39c-137.64,0-249.61,111.98-249.61,249.61s111.98,249.61,249.61,249.61,249.61-111.98,249.61-249.61-111.98-249.61-249.61-249.61Z"/>
    <path class="cls-2" d="M1087.18,2066.03c-42.65,0-84.04-8.36-123.02-24.85-37.64-15.92-71.43-38.7-100.44-67.71-29.01-29.01-51.79-62.81-67.71-100.44-16.49-38.98-24.85-80.37-24.85-123.02s8.36-84.04,24.85-123.02c15.92-37.64,38.7-71.43,67.71-100.44,29.01-29.01,62.81-51.8,100.44-67.71,38.98-16.49,80.37-24.85,123.02-24.85s84.04,8.36,123.02,24.85c37.64,15.92,71.43,38.7,100.44,67.71,29.01,29.01,51.79,62.81,67.71,100.44,16.49,38.98,24.85,80.37,24.85,123.02s-8.36,84.04-24.85,123.02c-15.92,37.64-38.7,71.43-67.71,100.44-29.01,29.01-62.81,51.8-100.44,67.71-38.98,16.49-80.37,24.85-123.02,24.85ZM1087.18,1500.39c-137.64,0-249.61,111.98-249.61,249.61s111.98,249.61,249.61,249.61,249.61-111.98,249.61-249.61-111.98-249.61-249.61-249.61Z"/>
  </g>
  <g>
    <g>
      <path class="cls-2" d="M2858.77,1623.73c20.02,0,36.25-16.25,36.25-36.27s-16.22-36.27-36.25-36.27-36.27,16.25-36.27,36.27c0,3.48.49,6.82,1.4,10,2.28-1.39,4.98-2.21,7.85-2.21,8.35,0,15.11,6.76,15.11,15.09,0,3.78-1.4,7.23-3.67,9.87,4.72,2.25,10,3.52,15.58,3.52Z"/>
      <path class="cls-1" d="M1598.76,1637.11c68.33,0,113.58,37.4,118.2,97.88h-71.56c-5.08-23.09-19.39-34.17-43.86-34.17-30.01,0-49.4,22.62-49.4,58.18s18.01,58.64,48.48,58.64c24.93,0,40.17-11.54,44.79-34.17h71.56c-4.62,58.18-51.71,97.88-116.35,97.88-72.95,0-120.04-48.48-120.04-122.35s48.94-121.89,118.2-121.89Z"/>
      <path class="cls-1" d="M1755.74,1875.35v-348.13h71.56v141.28c14.31-19.85,40.63-31.4,70.64-31.4,54.94,0,86.8,35.09,86.8,95.57v142.67h-71.1v-125.58c0-29.09-16.16-48.02-40.63-48.02-28.16,0-46.17,18.47-46.17,47.09v126.51h-71.1Z"/>
      <path class="cls-1" d="M2150.5,1637.57c73.41,0,126.97,48.94,126.97,121.89s-53.56,121.43-126.97,121.43-127.43-48.48-127.43-121.43,53.56-121.89,127.43-121.89ZM2150.5,1817.17c32.78,0,55.41-23.09,55.41-58.18s-22.62-57.71-55.41-57.71-55.87,23.09-55.87,57.71,22.62,58.18,55.87,58.18Z"/>
      <path class="cls-1" d="M2433.53,1637.57c73.41,0,126.97,48.94,126.97,121.89s-53.56,121.43-126.97,121.43-127.43-48.48-127.43-121.43,53.56-121.89,127.43-121.89ZM2433.53,1817.17c32.78,0,55.41-23.09,55.41-58.18s-22.62-57.71-55.41-57.71-55.87,23.09-55.87,57.71,22.62,58.18,55.87,58.18Z"/>
      <path class="cls-1" d="M2652.38,1802.4c.92,16.16,12.93,25.86,34.63,25.86s32.32-7.85,32.32-19.85c0-6.93-3.69-14.31-20.78-18.01l-42.48-9.23c-42.48-9.23-63.25-27.7-63.25-68.33,0-48.02,41.09-75.72,96.5-75.72s90.96,31.4,90.96,78.03h-67.41c0-15.7-9.7-26.32-26.78-26.32-16.16,0-26.32,8.31-26.32,20.78,0,10.62,8.77,16.62,24.93,20.32l42.94,9.23c37.86,8.31,58.64,25.86,58.64,62.79,0,49.4-42.02,79.41-102.04,79.41s-99.27-32.32-99.27-78.95h67.41Z"/>
      <path class="cls-1" d="M2823.21,1644.49h71.1v230.85h-71.1v-230.85Z"/>
      <path class="cls-1" d="M2958.03,1644.49v-18.47c0-68.79,36.01-98.81,94.65-98.81,9.7,0,20.78.92,31.86,2.77v60.95h-19.85c-29.09,0-35.55,15.24-35.55,35.09v18.47h55.41v59.1h-55.41v171.76h-71.1v-171.76h-31.86v-59.1h31.86Z"/>
      <path class="cls-1" d="M3097.92,1926.6h39.25c24.01,0,34.17-7.39,43.4-32.32l4.16-11.08-92.8-238.7h76.18l50.33,148.21,55.87-148.21h73.87l-117.27,281.18c-19.39,47.09-45.25,66.95-85.88,66.95-17.08,0-33.24-2.31-47.09-6.46v-59.56Z"/>
    </g>
    <g data-rmark-scaled="1" transform="translate(3371.336 1881.350) scale(1.55) translate(-3352.750 -1881.350)">
      <path class="cls-1" d="M3352.75,1923.59c-11.28,0-21.89-4.39-29.87-12.37-7.98-7.98-12.37-18.58-12.37-29.87s4.39-21.89,12.37-29.87c7.98-7.98,18.58-12.37,29.87-12.37s21.89,4.39,29.87,12.37c7.98,7.98,12.37,18.58,12.37,29.87s-4.39,21.89-12.37,29.87c-7.98,7.98-18.58,12.37-29.87,12.37ZM3352.75,1847.76c-18.52,0-33.59,15.07-33.59,33.59s15.07,33.59,33.59,33.59,33.59-15.07,33.59-33.59-15.07-33.59-33.59-33.59Z"/>
      <path class="cls-1" d="M3340.5,1897.66v-32.63h12.45c7.41,0,11.74,3.75,11.74,10.18,0,4.37-2.05,7.5-5.89,9.06l6.2,13.39h-6.25l-5.54-12.19h-7.01v12.19h-5.71ZM3346.21,1880.43h6.74c3.62,0,5.76-1.92,5.76-5.22s-2.14-5.09-5.76-5.09h-6.74v10.31Z"/>
    
  </g>
</g>
</svg>
