<?xml version="1.0" encoding="UTF-8"?>
<svg xmlns="http://www.w3.org/2000/svg" viewBox="0 0 512 512">
  <rect width="512" height="512" rx="112" ry="112" fill="#000435"/>
  <g transform="translate(28.000 144.597) scale(0.15193163) translate(-261.180 -1102.850)">
    <path fill="#FFFFFF" d="M3077.32,1913.39c0-153.52-124.56-277.91-278.07-277.91s-278.07,124.39-278.07,277.91,124.56,278.07,278.07,278.07c26.65,0,52.32-3.79,76.67-10.7-10.69-17.44-16.95-38.17-16.95-60.22,0-64,51.83-115.84,115.67-115.84,28.96,0,55.45,10.7,75.69,28.14,17.28-36.2,26.98-76.67,26.98-119.46Z"/>
    <path fill="#FFFFFF" d="M1243.76,1913.39c0-153.52-124.56-277.91-278.07-277.91s-278.07,124.39-278.07,277.91c0,153.52,124.56,278.07,278.07,278.07,26.65,0,52.32-3.79,76.67-10.7-10.69-17.44-16.95-38.17-16.95-60.22,0-64,51.83-115.84,115.67-115.84,28.96,0,55.45,10.7,75.69,28.14,17.28-36.2,26.98-76.67,26.98-119.46Z"/>
    <path fill="#FFFFFF" d="M908.33,2569.34c-110.57,0-217.88-21.67-318.95-64.42-97.58-41.27-185.19-100.34-260.41-175.56-75.22-75.22-134.28-162.83-175.56-260.41-42.75-101.07-64.42-208.38-64.42-318.95s21.68-217.88,64.42-318.95c41.27-97.58,100.34-185.19,175.56-260.41,75.22-75.22,162.83-134.28,260.41-175.56,101.07-42.75,208.38-64.42,318.95-64.42s217.88,21.67,318.95,64.42c97.58,41.27,185.19,100.34,260.41,175.56,75.22,75.22,134.28,162.83,175.56,260.41,42.75,101.07,64.42,208.38,64.42,318.95s-21.68,217.88-64.42,318.95c-41.27,97.58-100.34,185.19-175.56,260.41-75.22,75.22-162.83,134.28-260.41,175.56-101.07,42.75-208.38,64.42-318.95,64.42ZM908.33,1102.85c-356.84,0-647.15,290.31-647.15,647.15s290.31,647.15,647.15,647.15,647.15-290.31,647.15-647.15-290.31-647.15-647.15-647.15Z"/>
    <path fill="#FFFFFF" d="M2615.38,2569.34c-110.57,0-217.88-21.67-318.95-64.42-97.58-41.27-185.19-100.34-260.41-175.56-75.22-75.22-134.28-162.83-175.56-260.41-42.75-101.07-64.42-208.38-64.42-318.95s21.68-217.88,64.42-318.95c41.27-97.58,100.34-185.19,175.56-260.41,75.22-75.22,162.83-134.28,260.41-175.56,101.07-42.75,208.38-64.42,318.95-64.42s217.88,21.67,318.95,64.42c97.58,41.27,185.19,100.34,260.41,175.56,75.22,75.22,134.28,162.83,175.56,260.41,42.75,101.07,64.42,208.38,64.42,318.95s-21.68,217.88-64.42,318.95c-41.27,97.58-100.34,185.19-175.56,260.41-75.22,75.22-162.83,134.28-260.41,175.56-101.07,42.75-208.38,64.42-318.95,64.42ZM2615.38,1102.85c-356.84,0-647.15,290.31-647.15,647.15s290.31,647.15,647.15,647.15,647.15-290.31,647.15-647.15-290.31-647.15-647.15-647.15Z"/>
  </g>
</svg>
