<?xml version="1.0" encoding="UTF-8"?>
<svg id="Layer_1" data-name="Layer 1" xmlns="http://www.w3.org/2000/svg" viewBox="82.780 849.970 3430.786 1730.670">
  <defs>
    <style>
      .cls-1 {
        fill: #fff;
      }

      .cls-2 {
        fill: #ef3c23;
      }
    </style>
  </defs>
  <g>
    <path class="cls-2" d="M2467.26,1423.32c0-87.07-70.64-157.62-157.71-157.62s-157.71,70.55-157.71,157.62,70.64,157.71,157.71,157.71c15.12,0,29.68-2.15,43.49-6.07-6.06-9.89-9.61-21.65-9.61-34.15,0-36.3,29.4-65.7,65.6-65.7,16.42,0,31.45,6.07,42.93,15.96,9.8-20.53,15.3-43.49,15.3-67.75Z"/>
    <path class="cls-2" d="M1427.34,1423.32c0-87.07-70.64-157.62-157.71-157.62s-157.71,70.55-157.71,157.62,70.64,157.71,157.71,157.71c15.12,0,29.68-2.15,43.49-6.07-6.06-9.89-9.61-21.65-9.61-34.15,0-36.3,29.4-65.7,65.6-65.7,16.42,0,31.45,6.07,42.93,15.96,9.8-20.53,15.3-43.49,15.3-67.75Z"/>
    <path class="cls-2" d="M1237.1,1795.35c-62.71,0-123.57-12.29-180.89-36.54-55.34-23.41-105.03-56.91-147.69-99.57-42.66-42.66-76.16-92.35-99.57-147.69-24.24-57.32-36.54-118.18-36.54-180.89s12.29-123.57,36.54-180.89c23.41-55.34,56.91-105.03,99.57-147.69,42.66-42.66,92.35-76.16,147.69-99.57,57.32-24.24,118.18-36.54,180.89-36.54s123.57,12.29,180.89,36.54c55.34,23.41,105.03,56.91,147.69,99.57,42.66,42.66,76.16,92.35,99.57,147.69,24.24,57.32,36.54,118.18,36.54,180.89s-12.29,123.57-36.54,180.89c-23.41,55.34-56.91,105.03-99.57,147.69-42.66,42.66-92.35,76.16-147.69,99.57-57.32,24.24-118.18,36.54-180.89,36.54ZM1237.1,963.62c-202.38,0-367.04,164.65-367.04,367.04s164.65,367.04,367.04,367.04,367.04-164.65,367.04-367.04-164.65-367.04-367.04-367.04Z"/>
    <path class="cls-2" d="M2205.26,1795.35c-62.71,0-123.57-12.29-180.89-36.54-55.34-23.41-105.03-56.91-147.69-99.57-42.66-42.66-76.16-92.35-99.57-147.69-24.24-57.32-36.54-118.18-36.54-180.89s12.29-123.57,36.54-180.89c23.41-55.34,56.91-105.03,99.57-147.69,42.66-42.66,92.35-76.16,147.69-99.57,57.32-24.24,118.18-36.54,180.89-36.54s123.57,12.29,180.89,36.54c55.34,23.41,105.03,56.91,147.69,99.57,42.66,42.66,76.16,92.35,99.57,147.69,24.24,57.32,36.54,118.18,36.54,180.89s-12.29,123.57-36.54,180.89c-23.41,55.34-56.91,105.03-99.57,147.69-42.66,42.66-92.35,76.16-147.69,99.57-57.32,24.24-118.18,36.54-180.89,36.54ZM2205.26,963.62c-202.38,0-367.04,164.65-367.04,367.04s164.65,367.04,367.04,367.04,367.04-164.65,367.04-367.04-164.65-367.04-367.04-367.04Z"/>
  </g>
  <g>
    <path class="cls-2" d="M2493.3,1923.71c34.79,0,62.98-28.23,62.98-63.02s-28.19-63.02-62.98-63.02-63.02,28.23-63.02,63.02c0,6.04.86,11.86,2.42,17.38,3.95-2.42,8.65-3.84,13.65-3.84,14.5,0,26.25,11.75,26.25,26.21,0,6.56-2.42,12.57-6.38,17.15,8.2,3.91,17.38,6.11,27.07,6.11Z"/>
    <path class="cls-1" d="M304.14,1946.95c118.72,0,197.34,64.98,205.36,170.06h-124.34c-8.82-40.11-33.69-59.36-76.21-59.36-52.14,0-85.83,39.31-85.83,101.07s31.28,101.88,84.23,101.88c43.32,0,69.79-20.05,77.81-59.36h124.34c-8.02,101.07-89.84,170.06-202.15,170.06-126.74,0-208.57-84.23-208.57-212.58s85.03-211.78,205.36-211.78Z"/>
    <path class="cls-1" d="M576.88,2360.88v-604.84h124.34v245.47c24.87-34.49,70.59-54.55,122.73-54.55,95.46,0,150.81,60.97,150.81,166.05v247.87h-123.54v-218.19c0-50.54-28.08-83.43-70.59-83.43-48.93,0-80.22,32.09-80.22,81.82v219.8h-123.54Z"/>
    <path class="cls-1" d="M1262.74,1947.75c127.55,0,220.6,85.03,220.6,211.77s-93.05,210.97-220.6,210.97-221.4-84.23-221.4-210.97,93.05-211.77,221.4-211.77ZM1262.74,2259.8c56.95,0,96.26-40.11,96.26-101.07s-39.31-100.27-96.26-100.27-97.06,40.11-97.06,100.27,39.31,101.07,97.06,101.07Z"/>
    <path class="cls-1" d="M1754.47,1947.75c127.55,0,220.6,85.03,220.6,211.77s-93.05,210.97-220.6,210.97-221.4-84.23-221.4-210.97,93.05-211.77,221.4-211.77ZM1754.47,2259.8c56.95,0,96.26-40.11,96.26-101.07s-39.31-100.27-96.26-100.27-97.06,40.11-97.06,100.27,39.31,101.07,97.06,101.07Z"/>
    <path class="cls-1" d="M2134.71,2234.13c1.6,28.08,22.46,44.92,60.16,44.92s56.15-13.64,56.15-34.49c0-12.03-6.42-24.87-36.1-31.29l-73.8-16.04c-73.8-16.04-109.9-48.13-109.9-118.72,0-83.43,71.39-131.56,167.66-131.56s158.03,54.55,158.03,135.57h-117.12c0-27.27-16.85-45.72-46.53-45.72-28.08,0-45.72,14.44-45.72,36.1,0,18.45,15.24,28.88,43.32,35.3l74.6,16.04c65.78,14.44,101.88,44.92,101.88,109.1,0,85.83-73,137.98-177.28,137.98s-172.47-56.15-172.47-137.17h117.12Z"/>
    <path class="cls-1" d="M2431.51,1959.79h123.54v401.09h-123.54v-401.09Z"/>
    <path class="cls-1" d="M2665.75,1959.79v-32.09c0-119.52,62.57-171.67,164.45-171.67,16.85,0,36.1,1.6,55.35,4.81v105.89h-34.49c-50.54,0-61.77,26.47-61.77,60.97v32.09h96.26v102.68h-96.26v298.41h-123.54v-298.41h-55.35v-102.68h55.35Z"/>
    <path class="cls-1" d="M2908.81,2449.92h68.19c41.71,0,59.36-12.83,75.4-56.15l7.22-19.25-161.24-414.73h132.36l87.44,257.5,97.06-257.5h128.35l-203.75,488.53c-33.69,81.82-78.61,116.32-149.21,116.32-29.68,0-57.76-4.01-81.82-11.23v-103.48Z"/>
  </g>
  <g data-rmark-scaled="1" transform="translate(3383.827 2371.310) scale(1.55) translate(-3351.540 -2371.310)">
      <path class="cls-1" d="M3351.54,2444.69c-19.6,0-38.03-7.63-51.89-21.49-13.86-13.86-21.49-32.29-21.49-51.89s7.63-38.03,21.49-51.89c13.86-13.86,32.29-21.49,51.89-21.49s38.03,7.63,51.89,21.49c13.86,13.86,21.49,32.29,21.49,51.89s-7.63,38.03-21.49,51.89c-13.86,13.86-32.29,21.49-51.89,21.49ZM3351.54,2312.95c-32.18,0-58.35,26.18-58.35,58.35s26.18,58.35,58.35,58.35,58.35-26.18,58.35-58.35-26.18-58.35-58.35-58.35Z"/>
    <path class="cls-1" d="M3330.25,2399.65v-56.69h21.64c12.87,0,20.4,6.52,20.4,17.68,0,7.6-3.57,13.03-10.24,15.74l10.78,23.27h-10.86l-9.62-21.17h-12.18v21.17h-9.93ZM3340.18,2369.72h11.71c6.28,0,10-3.34,10-9.07s-3.72-8.84-10-8.84h-11.71v17.92Z"/>
  
  </g>
</svg>
