<?xml version="1.0" encoding="UTF-8"?>
<svg id="Layer_1" data-name="Layer 1" xmlns="http://www.w3.org/2000/svg" viewBox="96.740 1212.750 3385.941 829.930">
  <defs>
    <style>
      .cls-1 {
        fill: #fff;
      }

      .cls-2 {
        fill: #ef3c23;
      }
    </style>
  </defs>
  <g>
    <path class="cls-2" d="M2475.65,1394.22c34.33,0,62.15-27.85,62.15-62.18s-27.82-62.19-62.15-62.19-62.19,27.85-62.19,62.19c0,5.96.85,11.7,2.39,17.15,3.9-2.39,8.54-3.79,13.47-3.79,14.31,0,25.9,11.59,25.9,25.87,0,6.48-2.39,12.4-6.29,16.93,8.09,3.86,17.15,6.03,26.71,6.03Z"/>
    <path class="cls-1" d="M315.37,1417.15c117.16,0,194.73,64.12,202.65,167.82h-122.7c-8.71-39.58-33.25-58.58-75.2-58.58-51.45,0-84.7,38.79-84.7,99.74s30.87,100.53,83.12,100.53c42.75,0,68.87-19.79,76.79-58.58h122.7c-7.92,99.74-88.66,167.82-199.48,167.82-125.07,0-205.81-83.12-205.81-209.77s83.91-208.98,202.65-208.98Z"/>
    <path class="cls-1" d="M584.51,1825.61v-596.86h122.7v242.23c24.54-34.04,69.66-53.83,121.11-53.83,94.2,0,148.82,60.16,148.82,163.86v244.6h-121.91v-215.31c0-49.87-27.71-82.33-69.66-82.33-48.29,0-79.16,31.66-79.16,80.74v216.9h-121.91Z"/>
    <path class="cls-1" d="M1261.32,1417.94c125.86,0,217.69,83.91,217.69,208.98s-91.83,208.19-217.69,208.19-218.48-83.12-218.48-208.19,91.82-208.98,218.48-208.98ZM1261.32,1725.87c56.2,0,94.99-39.58,94.99-99.74s-38.79-98.95-94.99-98.95-95.78,39.58-95.78,98.95,38.79,99.74,95.78,99.74Z"/>
    <path class="cls-1" d="M1746.57,1417.94c125.86,0,217.69,83.91,217.69,208.98s-91.83,208.19-217.69,208.19-218.48-83.12-218.48-208.19,91.82-208.98,218.48-208.98ZM1746.57,1725.87c56.2,0,94.99-39.58,94.99-99.74s-38.79-98.95-94.99-98.95-95.78,39.58-95.78,98.95,38.79,99.74,95.78,99.74Z"/>
    <path class="cls-1" d="M2121.79,1700.54c1.58,27.71,22.16,44.33,59.37,44.33s55.41-13.46,55.41-34.04c0-11.87-6.33-24.54-35.62-30.87l-72.83-15.83c-72.83-15.83-108.45-47.5-108.45-117.16,0-82.33,70.45-129.82,165.44-129.82s155.94,53.83,155.94,133.78h-115.57c0-26.91-16.62-45.12-45.91-45.12-27.71,0-45.12,14.25-45.12,35.62,0,18.21,15.04,28.5,42.75,34.83l73.62,15.83c64.91,14.25,100.53,44.33,100.53,107.66,0,84.7-72.03,136.15-174.94,136.15s-170.19-55.41-170.19-135.36h115.57Z"/>
    <path class="cls-1" d="M2414.68,1429.82h121.91v395.8h-121.91v-395.8Z"/>
    <path class="cls-1" d="M2645.82,1429.82v-31.66c0-117.95,61.74-169.4,162.28-169.4,16.62,0,35.62,1.58,54.62,4.75v104.49h-34.04c-49.87,0-60.95,26.12-60.95,60.16v31.66h94.99v101.32h-94.99v294.47h-121.91v-294.47h-54.62v-101.32h54.62Z"/>
    <path class="cls-1" d="M2885.68,1913.48h67.29c41.16,0,58.58-12.67,74.41-55.41l7.12-19-159.11-409.25h130.61l86.28,254.1,95.78-254.1h126.66l-201.07,482.08c-33.25,80.74-77.58,114.78-147.24,114.78-29.29,0-56.99-3.96-80.74-11.08v-102.12Z"/>
  </g>
  <g data-rmark-scaled="1" transform="translate(3354.438 1835.900) scale(1.55) translate(-3322.575 -1835.900)">
      <path class="cls-1" d="M3322.57,1908.32c-19.34,0-37.53-7.53-51.2-21.21-13.68-13.68-21.21-31.86-21.21-51.21s7.53-37.53,21.21-51.21c13.68-13.68,31.86-21.21,51.2-21.21s37.53,7.53,51.21,21.21c13.68,13.68,21.21,31.86,21.21,51.21s-7.53,37.53-21.21,51.21c-13.68,13.68-31.86,21.21-51.21,21.21ZM3322.57,1778.32c-31.75,0-57.58,25.83-57.58,57.58s25.83,57.58,57.58,57.58,57.58-25.83,57.58-57.58-25.83-57.58-57.58-57.58Z"/>
    <path class="cls-1" d="M3301.56,1863.88v-55.95h21.35c12.7,0,20.13,6.43,20.13,17.45,0,7.5-3.52,12.86-10.1,15.54l10.64,22.96h-10.71l-9.49-20.89h-12.02v20.89h-9.8ZM3311.36,1834.34h11.56c6.2,0,9.87-3.29,9.87-8.95s-3.67-8.73-9.87-8.73h-11.56v17.68Z"/>
  
  </g>
</svg>
