<?xml version="1.0" encoding="UTF-8"?>
<svg id="Layer_1" data-name="Layer 1" xmlns="http://www.w3.org/2000/svg" viewBox="109.240 1355.220 3330.731 659.240">
  <defs>
    <style>
      .cls-1 {
        fill: #18154c;
      }

      .cls-2 {
        fill: #ef3c23;
      }
    </style>
  </defs>
  <g>
    <path class="cls-2" d="M1269.08,1747.38c0-58.76-47.68-106.37-106.44-106.37s-106.44,47.61-106.44,106.37,47.68,106.44,106.44,106.44c10.2,0,20.03-1.45,29.35-4.09-4.09-6.68-6.49-14.61-6.49-23.05,0-24.5,19.84-44.34,44.28-44.34,11.08,0,21.23,4.09,28.97,10.77,6.61-13.86,10.33-29.35,10.33-45.72Z"/>
    <path class="cls-2" d="M567.25,1747.38c0-58.76-47.68-106.37-106.44-106.37s-106.44,47.61-106.44,106.37,47.68,106.44,106.44,106.44c10.2,0,20.03-1.45,29.35-4.09-4.09-6.68-6.49-14.61-6.49-23.05,0-24.5,19.84-44.34,44.28-44.34,11.08,0,21.23,4.09,28.97,10.77,6.61-13.86,10.33-29.35,10.33-45.72Z"/>
    <path class="cls-2" d="M438.86,1998.46c-42.32,0-83.4-8.3-122.08-24.66-37.35-15.8-70.89-38.41-99.68-67.2-28.79-28.79-51.4-62.33-67.2-99.68-16.36-38.69-24.66-79.76-24.66-122.08s8.3-83.4,24.66-122.08c15.8-37.35,38.41-70.89,67.2-99.68,28.79-28.79,62.33-51.4,99.68-67.2,38.69-16.36,79.76-24.66,122.08-24.66s83.4,8.3,122.08,24.66c37.35,15.8,70.89,38.41,99.68,67.2,28.79,28.79,51.4,62.33,67.2,99.68,16.36,38.69,24.66,79.76,24.66,122.08s-8.3,83.4-24.66,122.08c-15.8,37.35-38.41,70.89-67.2,99.68-28.79,28.79-62.33,51.4-99.68,67.2-38.69,16.36-79.76,24.66-122.08,24.66ZM438.86,1437.13c-136.59,0-247.71,111.12-247.71,247.71s111.12,247.71,247.71,247.71,247.71-111.12,247.71-247.71-111.12-247.71-247.71-247.71Z"/>
    <path class="cls-2" d="M1092.26,1998.46c-42.32,0-83.4-8.3-122.08-24.66-37.35-15.8-70.89-38.41-99.68-67.2-28.79-28.79-51.4-62.33-67.2-99.68-16.36-38.69-24.66-79.76-24.66-122.08s8.3-83.4,24.66-122.08c15.8-37.35,38.41-70.89,67.2-99.68,28.79-28.79,62.33-51.4,99.68-67.2,38.69-16.36,79.76-24.66,122.08-24.66s83.4,8.3,122.08,24.66c37.35,15.8,70.89,38.41,99.68,67.2,28.79,28.79,51.4,62.33,67.2,99.68,16.36,38.69,24.66,79.76,24.66,122.08s-8.3,83.4-24.66,122.08c-15.8,37.35-38.41,70.89-67.2,99.68-28.79,28.79-62.33,51.4-99.68,67.2-38.69,16.36-79.76,24.66-122.08,24.66ZM1092.26,1437.13c-136.59,0-247.71,111.12-247.71,247.71s111.12,247.71,247.71,247.71,247.71-111.12,247.71-247.71-111.12-247.71-247.71-247.71Z"/>
  </g>
  <g>
    <g>
      <path class="cls-2" d="M2850.34,1559.53c19.87,0,35.97-16.12,35.97-35.99s-16.1-35.99-35.97-35.99-35.99,16.12-35.99,35.99c0,3.45.49,6.77,1.38,9.92,2.26-1.38,4.94-2.19,7.79-2.19,8.28,0,14.99,6.71,14.99,14.97,0,3.75-1.38,7.18-3.64,9.8,4.69,2.24,9.92,3.49,15.46,3.49Z"/>
      <path class="cls-1" d="M1599.95,1572.81c67.81,0,112.71,37.11,117.3,97.14h-71.02c-5.04-22.91-19.24-33.91-43.53-33.91-29.78,0-49.03,22.45-49.03,57.73s17.87,58.19,48.11,58.19c24.74,0,39.86-11.45,44.44-33.91h71.02c-4.58,57.73-51.32,97.14-115.46,97.14-72.39,0-119.13-48.11-119.13-121.42s48.57-120.96,117.3-120.96Z"/>
      <path class="cls-1" d="M1755.73,1809.23v-345.47h71.02v140.2c14.2-19.7,40.32-31.16,70.1-31.16,54.52,0,86.14,34.82,86.14,94.84v141.58h-70.56v-124.63c0-28.87-16.04-47.65-40.32-47.65-27.95,0-45.82,18.33-45.82,46.73v125.54h-70.56Z"/>
      <path class="cls-1" d="M2147.48,1573.27c72.85,0,126,48.57,126,120.96s-53.15,120.5-126,120.5-126.46-48.11-126.46-120.5,53.15-120.96,126.46-120.96ZM2147.48,1751.5c32.53,0,54.98-22.91,54.98-57.73s-22.45-57.27-54.98-57.27-55.44,22.91-55.44,57.27,22.45,57.73,55.44,57.73Z"/>
      <path class="cls-1" d="M2428.34,1573.27c72.85,0,126,48.57,126,120.96s-53.15,120.5-126,120.5-126.46-48.11-126.46-120.5,53.15-120.96,126.46-120.96ZM2428.34,1751.5c32.53,0,54.98-22.91,54.98-57.73s-22.45-57.27-54.98-57.27-55.44,22.91-55.44,57.27,22.45,57.73,55.44,57.73Z"/>
      <path class="cls-1" d="M2645.52,1736.84c.92,16.04,12.83,25.66,34.36,25.66s32.07-7.79,32.07-19.7c0-6.87-3.67-14.2-20.62-17.87l-42.15-9.16c-42.15-9.16-62.77-27.49-62.77-67.81,0-47.65,40.78-75.14,95.76-75.14s90.26,31.16,90.26,77.43h-66.89c0-15.58-9.62-26.12-26.57-26.12-16.04,0-26.12,8.25-26.12,20.62,0,10.54,8.71,16.49,24.74,20.16l42.61,9.16c37.57,8.25,58.19,25.66,58.19,62.31,0,49.03-41.69,78.81-101.26,78.81s-98.51-32.07-98.51-78.35h66.89Z"/>
      <path class="cls-1" d="M2815.05,1580.14h70.56v229.09h-70.56v-229.09Z"/>
      <path class="cls-1" d="M2948.84,1580.14v-18.33c0-68.27,35.74-98.05,93.93-98.05,9.62,0,20.62.92,31.61,2.75v60.48h-19.7c-28.87,0-35.28,15.12-35.28,34.82v18.33h54.98v58.65h-54.98v170.44h-70.56v-170.44h-31.61v-58.65h31.61Z"/>
      <path class="cls-1" d="M3087.67,1860.09h38.95c23.83,0,33.91-7.33,43.07-32.07l4.12-11-92.1-236.88h75.6l49.94,147.08,55.44-147.08h73.31l-116.38,279.03c-19.24,46.73-44.9,66.44-85.22,66.44-16.95,0-32.99-2.29-46.73-6.41v-59.11Z"/>
    </g>
    <g data-rmark-scaled="1" transform="translate(3358.995 1815.180) scale(1.55) translate(-3340.550 -1815.180)">
      <path class="cls-1" d="M3340.55,1857.1c-11.2,0-21.72-4.36-29.64-12.28-7.92-7.92-12.28-18.44-12.28-29.64s4.36-21.72,12.28-29.64c7.92-7.92,18.44-12.28,29.64-12.28s21.72,4.36,29.64,12.28c7.92,7.92,12.28,18.44,12.28,29.64s-4.36,21.72-12.28,29.64c-7.92,7.92-18.44,12.28-29.64,12.28ZM3340.55,1781.86c-18.38,0-33.33,14.95-33.33,33.33s14.95,33.33,33.33,33.33,33.33-14.95,33.33-33.33-14.95-33.33-33.33-33.33Z"/>
      <path class="cls-1" d="M3328.39,1831.38v-32.38h12.36c7.35,0,11.65,3.72,11.65,10.1,0,4.34-2.04,7.44-5.85,8.99l6.16,13.29h-6.2l-5.49-12.09h-6.95v12.09h-5.67ZM3334.06,1814.28h6.69c3.59,0,5.71-1.91,5.71-5.18s-2.13-5.05-5.71-5.05h-6.69v10.23Z"/>
    
  </g>
</g>
</svg>
