<?xml version="1.0" encoding="UTF-8"?>
<svg id="Layer_1" data-name="Layer 1" xmlns="http://www.w3.org/2000/svg" viewBox="57.740 806.700 3481.975 1756.270">
  <defs>
    <style>
      .cls-1 {
        fill: #18154c;
      }

      .cls-2 {
        fill: #ef3c23;
      }
    </style>
  </defs>
  <g>
    <path class="cls-2" d="M2477.88,1388.47c0-88.38-71.71-159.99-160.08-159.99s-160.09,71.61-160.09,159.99,71.71,160.09,160.09,160.09c15.34,0,30.12-2.18,44.14-6.16-6.16-10.04-9.76-21.97-9.76-34.67,0-36.85,29.84-66.69,66.59-66.69,16.67,0,31.92,6.16,43.57,16.2,9.95-20.84,15.53-44.14,15.53-68.77Z"/>
    <path class="cls-2" d="M1422.31,1388.47c0-88.38-71.71-159.99-160.08-159.99s-160.09,71.61-160.09,159.99,71.71,160.09,160.09,160.09c15.34,0,30.12-2.18,44.14-6.16-6.16-10.04-9.76-21.97-9.76-34.67,0-36.85,29.84-66.69,66.59-66.69,16.67,0,31.92,6.16,43.57,16.2,9.95-20.84,15.53-44.14,15.53-68.77Z"/>
    <path class="cls-2" d="M1229.2,1766.1c-63.66,0-125.43-12.48-183.62-37.09-56.17-23.76-106.61-57.76-149.92-101.07-43.3-43.3-77.31-93.74-101.07-149.92-24.61-58.18-37.09-119.96-37.09-183.62s12.48-125.43,37.09-183.62c23.76-56.17,57.76-106.61,101.07-149.92,43.3-43.3,93.74-77.31,149.92-101.07,58.18-24.61,119.96-37.09,183.62-37.09s125.43,12.48,183.62,37.09c56.17,23.76,106.61,57.76,149.92,101.07,43.3,43.3,77.31,93.74,101.07,149.92,24.61,58.18,37.09,119.96,37.09,183.62s-12.48,125.43-37.09,183.62c-23.76,56.17-57.76,106.61-101.07,149.92-43.3,43.3-93.74,77.31-149.92,101.07-58.18,24.61-119.96,37.09-183.62,37.09ZM1229.2,921.84c-205.43,0-372.56,167.13-372.56,372.56s167.13,372.56,372.56,372.56,372.56-167.13,372.56-372.56-167.13-372.56-372.56-372.56Z"/>
    <path class="cls-2" d="M2211.94,1766.1c-63.66,0-125.43-12.48-183.62-37.09-56.17-23.76-106.61-57.76-149.92-101.07-43.3-43.3-77.31-93.74-101.07-149.92-24.61-58.18-37.09-119.96-37.09-183.62s12.48-125.43,37.09-183.62c23.76-56.17,57.76-106.61,101.07-149.92,43.3-43.3,93.74-77.31,149.92-101.07,58.18-24.61,119.96-37.09,183.62-37.09s125.43,12.48,183.62,37.09c56.17,23.76,106.61,57.76,149.92,101.07,43.3,43.3,77.31,93.74,101.07,149.92,24.61,58.18,37.09,119.96,37.09,183.62s-12.48,125.43-37.09,183.62c-23.76,56.17-57.76,106.61-101.07,149.92-43.3,43.3-93.74,77.31-149.92,101.07-58.18,24.61-119.96,37.09-183.62,37.09ZM2211.94,921.84c-205.43,0-372.56,167.13-372.56,372.56s167.13,372.56,372.56,372.56,372.56-167.13,372.56-372.56-167.13-372.56-372.56-372.56Z"/>
  </g>
  <g>
    <path class="cls-2" d="M2504.31,1896.39c35.31,0,63.93-28.65,63.93-63.96s-28.61-63.97-63.93-63.97-63.97,28.65-63.97,63.97c0,6.13.87,12.04,2.46,17.64,4.01-2.46,8.78-3.9,13.85-3.9,14.72,0,26.65,11.92,26.65,26.61,0,6.66-2.46,12.76-6.47,17.41,8.33,3.97,17.64,6.21,27.48,6.21Z"/>
    <path class="cls-1" d="M282.19,1919.99c120.51,0,200.31,65.96,208.45,172.62h-126.21c-8.96-40.71-34.2-60.25-77.35-60.25-52.93,0-87.13,39.9-87.13,102.6s31.76,103.41,85.5,103.41c43.97,0,70.84-20.36,78.98-60.25h126.21c-8.14,102.6-91.2,172.62-205.19,172.62-128.65,0-211.71-85.5-211.71-215.78s86.31-214.96,208.45-214.96Z"/>
    <path class="cls-1" d="M559.03,2340.14v-613.95h126.21v249.16c25.24-35.01,71.66-55.37,124.58-55.37,96.9,0,153.08,61.88,153.08,168.55v251.61h-125.4v-221.48c0-51.3-28.5-84.68-71.66-84.68-49.67,0-81.43,32.57-81.43,83.05v223.11h-125.4Z"/>
    <path class="cls-1" d="M1255.22,1920.8c129.47,0,223.92,86.31,223.92,214.96s-94.45,214.15-223.92,214.15-224.73-85.5-224.73-214.15,94.45-214.96,224.73-214.96ZM1255.22,2237.55c57.81,0,97.71-40.71,97.71-102.6s-39.9-101.78-97.71-101.78-98.53,40.71-98.53,101.78,39.9,102.6,98.53,102.6Z"/>
    <path class="cls-1" d="M1754.36,1920.8c129.47,0,223.92,86.31,223.92,214.96s-94.45,214.15-223.92,214.15-224.73-85.5-224.73-214.15,94.45-214.96,224.73-214.96ZM1754.36,2237.55c57.81,0,97.71-40.71,97.71-102.6s-39.9-101.78-97.71-101.78-98.53,40.71-98.53,101.78,39.9,102.6,98.53,102.6Z"/>
    <path class="cls-1" d="M2140.32,2211.49c1.63,28.5,22.8,45.6,61.07,45.6s57-13.84,57-35.01c0-12.21-6.51-25.24-36.64-31.76l-74.91-16.28c-74.91-16.29-111.55-48.86-111.55-120.51,0-84.68,72.47-133.54,170.18-133.54s160.41,55.37,160.41,137.61h-118.88c0-27.68-17.1-46.41-47.23-46.41-28.5,0-46.41,14.66-46.41,36.64,0,18.73,15.47,29.31,43.97,35.83l75.73,16.29c66.77,14.66,103.41,45.6,103.41,110.74,0,87.13-74.1,140.05-179.95,140.05s-175.07-57-175.07-139.24h118.88Z"/>
    <path class="cls-1" d="M2441.6,1933.01h125.4v407.13h-125.4v-407.13Z"/>
    <path class="cls-1" d="M2679.36,1933.01v-32.57c0-121.32,63.51-174.25,166.92-174.25,17.1,0,36.64,1.63,56.18,4.89v107.48h-35.01c-51.3,0-62.7,26.87-62.7,61.88v32.57h97.71v104.23h-97.71v302.9h-125.4v-302.9h-56.18v-104.23h56.18Z"/>
    <path class="cls-1" d="M2926.08,2430.53h69.21c42.34,0,60.25-13.03,76.54-57l7.33-19.54-163.67-420.97h134.35l88.75,261.38,98.53-261.38h130.28l-206.82,495.88c-34.2,83.05-79.8,118.07-151.45,118.07-30.13,0-58.63-4.07-83.05-11.4v-105.04Z"/>
  </g>
  <g data-rmark-scaled="1" transform="translate(3408.256 2350.730) scale(1.55) translate(-3375.480 -2350.730)">
      <path class="cls-1" d="M3375.48,2425.22c-19.9,0-38.6-7.75-52.67-21.82-14.07-14.07-21.82-32.77-21.82-52.67s7.75-38.6,21.82-52.67c14.07-14.07,32.77-21.82,52.67-21.82s38.6,7.75,52.67,21.82c14.07,14.07,21.82,32.77,21.82,52.67s-7.75,38.6-21.82,52.67c-14.07,14.07-32.77,21.82-52.67,21.82ZM3375.48,2291.5c-32.66,0-59.23,26.57-59.23,59.23s26.57,59.23,59.23,59.23,59.23-26.57,59.23-59.23-26.57-59.23-59.23-59.23Z"/>
    <path class="cls-1" d="M3353.87,2379.5v-57.55h21.96c13.07,0,20.7,6.61,20.7,17.95,0,7.71-3.62,13.22-10.39,15.98l10.94,23.62h-11.02l-9.76-21.49h-12.36v21.49h-10.08ZM3363.95,2349.12h11.89c6.38,0,10.15-3.39,10.15-9.21s-3.78-8.97-10.15-8.97h-11.89v18.19Z"/>
  
  </g>
</svg>
