<?xml version="1.0" encoding="UTF-8"?>
<svg id="Layer_1" data-name="Layer 1" xmlns="http://www.w3.org/2000/svg" viewBox="0 0 3558.07 2533.09">
  <defs>
    <style>
      .cls-1, .cls-2 {
        fill: #fff;
      }

      .cls-3 {
        fill: #18154c;
      }

      .cls-4 {
        fill: #ef3c23;
      }

      .cls-2 {
        font-family: HaasGrotDispRTrial-65Medium, 'Haas Grot Disp R Trial';
        font-size: 66.2px;
        font-weight: 500;
      }
    </style>
  </defs>
  <rect class="cls-3" x="0" y="0" width="3558.07" height="2533.09"/>
  <g>
    <g>
      <g>
        <path class="cls-4" d="M2580.89,1009.41c0-95.9-77.81-173.61-173.71-173.61s-173.71,77.71-173.71,173.61,77.81,173.71,173.71,173.71c16.65,0,32.69-2.37,47.9-6.68-6.68-10.9-10.59-23.84-10.59-37.62,0-39.98,32.38-72.36,72.26-72.36,18.09,0,34.64,6.68,47.28,17.58,10.79-22.61,16.86-47.9,16.86-74.62Z"/>
        <path class="cls-4" d="M1435.48,1009.41c0-95.9-77.81-173.61-173.71-173.61s-173.71,77.71-173.71,173.61c0,95.9,77.81,173.71,173.71,173.71,16.65,0,32.69-2.37,47.9-6.68-6.68-10.9-10.59-23.84-10.59-37.62,0-39.98,32.38-72.36,72.26-72.36,18.09,0,34.64,6.68,47.28,17.58,10.79-22.61,16.86-47.9,16.86-74.62Z"/>
        <path class="cls-4" d="M1225.94,1419.18c-282.23,0-511.84-229.61-511.84-511.84s229.61-511.84,511.84-511.84,511.84,229.61,511.84,511.84-229.61,511.84-511.84,511.84ZM1225.94,512.46c-217.74,0-394.88,177.14-394.88,394.88s177.14,394.88,394.88,394.88,394.88-177.14,394.88-394.88-177.14-394.88-394.88-394.88Z"/>
        <path class="cls-4" d="M2292.32,1419.18c-282.23,0-511.84-229.61-511.84-511.84s229.61-511.84,511.84-511.84,511.84,229.61,511.84,511.84-229.61,511.84-511.84,511.84ZM2292.32,512.46c-217.74,0-394.88,177.14-394.88,394.88s177.14,394.88,394.88,394.88,394.88-177.14,394.88-394.88-177.14-394.88-394.88-394.88Z"/>
      </g>
      <g>
        <path class="cls-1" d="M127.95,1796.86c0-123.07,83.82-216.89,212.27-216.89,109.23,0,176.95,62.3,191.52,151.5h-116.88c-8.45-37.68-33.06-61.53-73.04-61.53-60.8,0-91.53,49.99-91.53,126.92s30.73,125.36,91.53,125.36c44.57,0,71.51-26.91,76.9-73.84h116.15c-3.86,93.06-77.7,165.37-191.52,165.37-130.78,0-215.4-94.59-215.4-216.89Z"/>
        <path class="cls-1" d="M712.03,2000.68h-120.81v-572.25h120.81v157.69c0,3.82,0,36.92-.8,63.83h2.33c24.61-43.84,66.12-69.98,123.07-69.98,89.93,0,142.29,59.97,142.29,151.5v269.21h-120.01v-246.13c0-44.6-23.81-74.6-68.45-74.6-46.9,0-78.43,37.68-78.43,90v230.73Z"/>
        <path class="cls-1" d="M1036.88,1796.86c0-123.07,86.15-216.89,216.93-216.89s215.33,93.83,215.33,216.89-85.34,216.89-215.33,216.89-216.93-94.59-216.93-216.89ZM1346.87,1796.86c0-77.7-33.86-130.75-93.86-130.75s-93.79,53.05-93.79,130.75,32.26,129.22,93.79,129.22,93.86-52.32,93.86-129.22Z"/>
        <path class="cls-1" d="M1511.01,1796.86c0-123.07,86.15-216.89,216.93-216.89s215.33,93.83,215.33,216.89-85.34,216.89-215.33,216.89-216.93-94.59-216.93-216.89ZM1821,1796.86c0-77.7-33.86-130.75-93.86-130.75s-93.79,53.05-93.79,130.75,32.26,129.22,93.79,129.22,93.86-52.32,93.86-129.22Z"/>
        <path class="cls-1" d="M1978.15,1874.52h113.82c6.92,38.49,36.19,60,83.09,60,43.11,0,67.72-17.7,67.72-46.9,0-36.92-48.5-41.54-105.37-52.32-73.11-13.84-146.95-32.3-146.95-127.69,0-83.82,76.17-127.65,172.29-127.65,113.82,0,170.76,49.23,181.54,120.73h-112.29c-7.72-29.2-30.8-43.84-69.25-43.84s-60.73,15.4-60.73,41.54c0,30.77,44.57,35.39,100.71,45.37,73.11,13.07,156.2,32.3,156.2,135.37,0,88.48-78.5,134.61-184.6,134.61-118.48,0-189.99-56.91-196.18-139.23Z"/>
        <rect class="cls-1" x="2419.14" y="1591.47" width="120.81" height="409.21"/>
        <path class="cls-1" d="M2777.78,1669.93v330.75h-120.81v-330.75h-61.53v-78.46h61.53v-34.59c0-43.84,10.78-74.6,34.66-96.16,26.87-23.85,69.18-33.06,121.46-32.3,16.17,0,33.13.76,50.03,3.06v86.15c-60.73-2.29-85.34,1.57-85.34,47.7v26.14h85.34v78.46h-85.34Z"/>
        <path class="cls-1" d="M2947.88,2136.05v-94.59h6.19c1.53.76,36.12.76,39.25.76,37.65,0,56.14-13.84,58.4-41.54,0-13.84-6.92-45.37-21.48-82.29l-126.92-326.92h126.92l52.28,156.93c18.42,55.38,33.86,142.29,33.86,142.29h1.53s18.42-87.67,36.12-142.29l50.03-156.93h120.01l-146.15,419.22c-33.13,94.59-70.78,126.89-149.21,126.89-3.86,0-78.5-.76-80.83-1.53Z"/>
        <path class="cls-4" d="M2479.93,1549.98c36.11,0,65.37-29.3,65.37-65.41,0-36.11-29.26-65.41-65.37-65.41s-65.41,29.3-65.41,65.41c0,6.27.89,12.31,2.52,18.04,4.1-2.52,8.98-3.99,14.17-3.99,15.06,0,27.25,12.19,27.25,27.21,0,6.81-2.52,13.04-6.62,17.8,8.51,4.06,18.04,6.35,28.1,6.35Z"/>
      </g>
    </g>
    <g>
      <text class="cls-2" transform="translate(3355.5478 1977.932)"><tspan x="0" y="0">R</tspan></text>
      <path class="cls-1" d="M3377.09,2008.37c-14.16,0-27.48-5.52-37.49-15.53-10.02-10.02-15.53-23.33-15.53-37.5s5.52-27.48,15.53-37.5c10.02-10.02,23.33-15.53,37.49-15.53s27.48,5.52,37.5,15.53c10.02,10.02,15.53,23.33,15.53,37.5s-5.52,27.48-15.53,37.5c-10.02,10.02-23.33,15.53-37.5,15.53ZM3377.09,1913.18c-23.25,0-42.17,18.92-42.17,42.17s18.92,42.17,42.17,42.17,42.17-18.92,42.17-42.17-18.92-42.17-42.17-42.17Z"/>
    </g>
  </g>
</svg>