<svg xmlns="http://www.w3.org/2000/svg" viewBox="714 395 2091 1025">
  <g fill="currentColor">
    <path d="M2580.89,1009.41c0-95.9-77.81-173.61-173.71-173.61s-173.71,77.71-173.71,173.61,77.81,173.71,173.71,173.71c16.65,0,32.69-2.37,47.9-6.68-6.68-10.9-10.59-23.84-10.59-37.62,0-39.98,32.38-72.36,72.26-72.36,18.09,0,34.64,6.68,47.28,17.58,10.79-22.61,16.86-47.9,16.86-74.62Z"/>
    <path d="M1435.48,1009.41c0-95.9-77.81-173.61-173.71-173.61s-173.71,77.71-173.71,173.61c0,95.9,77.81,173.71,173.71,173.71,16.65,0,32.69-2.37,47.9-6.68-6.68-10.9-10.59-23.84-10.59-37.62,0-39.98,32.38-72.36,72.26-72.36,18.09,0,34.64,6.68,47.28,17.58,10.79-22.61,16.86-47.9,16.86-74.62Z"/>
    <path d="M1225.94,1419.18c-282.23,0-511.84-229.61-511.84-511.84s229.61-511.84,511.84-511.84,511.84,229.61,511.84,511.84-229.61,511.84-511.84,511.84ZM1225.94,512.46c-217.74,0-394.88,177.14-394.88,394.88s177.14,394.88,394.88,394.88,394.88-177.14,394.88-394.88-177.14-394.88-394.88-394.88Z"/>
    <path d="M2292.32,1419.18c-282.23,0-511.84-229.61-511.84-511.84s229.61-511.84,511.84-511.84,511.84,229.61,511.84,511.84-229.61,511.84-511.84,511.84ZM2292.32,512.46c-217.74,0-394.88,177.14-394.88,394.88s177.14,394.88,394.88,394.88,394.88-177.14,394.88-394.88-177.14-394.88-394.88-394.88Z"/>
  </g>
</svg>